<?xml version="1.0" encoding="UTF-8"?>
<!DOCTYPE svg PUBLIC "-//W3C//DTD SVG 1.1//EN" "http://www.w3.org/Graphics/SVG/1.1/DTD/svg11.dtd">
<!-- Creator: CorelDRAW 2018 (64-Bit) -->
<svg xmlns="http://www.w3.org/2000/svg" xml:space="preserve" width="20400px" height="5868px" version="1.1" style="shape-rendering:geometricPrecision; text-rendering:geometricPrecision; image-rendering:optimizeQuality; fill-rule:evenodd; clip-rule:evenodd"
viewBox="0 0 20400 5868"
 xmlns:xlink="http://www.w3.org/1999/xlink">
 <defs>
  <style type="text/css">
   <![CDATA[
    .str0 {stroke:#1F7EBA;stroke-width:150;stroke-miterlimit:2.61313}
    .str1 {stroke:#EF7F1A;stroke-width:150;stroke-miterlimit:2.61313}
    .fil0 {fill:#EF7F1A}
    .fil1 {fill:#0879BA;fill-rule:nonzero}
    .fil2 {fill:#EF7F1A;fill-rule:nonzero}
    .fil3 {fill:#FEFEFE;fill-rule:nonzero}
   ]]>
  </style>
 </defs>
 <g id="Layer_x0020_1">
  <metadata id="CorelCorpID_0Corel-Layer"/>
  <path class="fil0" d="M2681 0c279,-2 518,161 620,220 682,394 709,409 1391,803 106,61 383,214 524,455 141,241 119,530 119,646 0,788 0,818 0,1606 0,122 6,439 -132,682 -138,243 -399,368 -500,427 -682,394 -709,409 -1391,803 -106,61 -377,225 -657,226 -279,2 -518,-161 -620,-220 -682,-394 -709,-409 -1391,-803 -106,-61 -383,-214 -524,-455 -141,-241 -119,-530 -119,-646 0,-788 0,-818 0,-1606 0,-122 -6,-439 132,-682 138,-243 399,-368 500,-427 682,-394 709,-409 1391,-803 106,-61 377,-225 657,-226z"/>
  <path class="fil1 str0" d="M7242 1811l0 1732c0,150 -37,268 -111,353 -78,91 -189,137 -332,137 -143,0 -255,-46 -335,-137 -72,-82 -108,-191 -108,-323 0,-31 -11,-53 -33,-69 -20,-15 -43,-22 -69,-20 -28,0 -52,9 -72,26 -20,20 -30,47 -30,82 0,168 52,309 157,424 120,133 284,199 490,199 207,0 369,-67 487,-202 109,-120 163,-269 163,-447l0 -1756c0,-35 -11,-62 -33,-81 -19,-17 -44,-26 -72,-26 -28,0 -52,9 -72,26 -19,20 -30,47 -30,81zm1908 1928c-50,89 -123,159 -218,209 -106,56 -235,85 -384,85 -133,0 -230,-28 -293,-85 -60,-52 -90,-132 -90,-238 0,-111 32,-195 97,-251 67,-61 182,-102 345,-124 163,-22 291,-47 384,-75 76,-24 129,-49 159,-75l0 555zm-446 -1384c-183,0 -330,40 -441,121 -113,85 -183,212 -209,379 -7,33 0,59 20,79 18,20 40,31 66,33 29,2 53,-4 72,-20 25,-16 38,-37 43,-65 11,-109 49,-192 114,-248 74,-65 184,-98 332,-98 152,0 266,28 342,85 72,54 108,134 108,241 0,94 -33,158 -98,192 -67,37 -217,72 -450,104 -263,33 -445,106 -545,219 -67,79 -101,190 -101,334 0,159 49,282 147,369 100,92 248,138 444,138 144,0 272,-25 385,-76 83,-37 157,-87 222,-150 0,67 20,115 58,144 48,31 134,46 258,46 31,0 55,-10 72,-30 15,-18 23,-38 23,-62 -2,-26 -11,-48 -26,-66 -17,-17 -39,-26 -65,-26 -39,0 -70,-11 -91,-33 -19,-19 -30,-47 -30,-85l0 -1034c0,-172 -63,-299 -189,-382 -111,-72 -265,-108 -461,-108zm1606 1751c19,74 61,110 124,110 61,0 104,-37 127,-110l607 -1630c9,-26 4,-50 -13,-72 -13,-20 -34,-33 -62,-42 -28,-9 -55,-9 -79,0 -27,9 -44,27 -53,56l-523 1482 -523 -1482c-11,-28 -30,-47 -56,-56 -25,-9 -51,-9 -79,0 -26,9 -47,23 -62,42 -16,22 -19,46 -10,72l603 1630zm2391 -367c-50,89 -123,159 -218,209 -106,56 -235,85 -384,85 -133,0 -230,-28 -293,-85 -60,-52 -90,-132 -90,-238 0,-111 32,-195 97,-251 67,-61 182,-102 345,-124 163,-22 291,-47 384,-75 76,-24 129,-49 159,-75l0 555zm-446 -1384c-183,0 -330,40 -441,121 -113,85 -183,212 -209,379 -7,33 0,59 20,79 18,20 40,31 66,33 29,2 53,-4 72,-20 25,-16 38,-37 43,-65 11,-109 49,-192 114,-248 74,-65 184,-98 332,-98 152,0 266,28 342,85 72,54 108,134 108,241 0,94 -33,158 -98,192 -67,37 -217,72 -450,104 -263,33 -445,106 -545,219 -67,79 -101,190 -101,334 0,159 49,282 147,369 100,92 248,138 444,138 144,0 272,-25 385,-76 83,-37 157,-87 222,-150 0,67 20,115 58,144 48,31 134,46 258,46 31,0 55,-10 72,-30 15,-18 23,-38 23,-62 -2,-26 -11,-48 -26,-66 -17,-17 -39,-26 -65,-26 -39,0 -70,-11 -91,-33 -20,-19 -30,-47 -30,-85l0 -1034c0,-172 -63,-299 -189,-382 -111,-72 -265,-108 -461,-108z"/>
  <path class="fil2 str1" d="M14495 1703c-333,0 -599,114 -800,343 -198,228 -297,533 -297,914 0,389 99,696 296,920 196,224 461,336 798,336 197,0 367,-41 508,-122 136,-76 241,-188 312,-336l0 313c0,33 10,59 30,79 20,17 44,26 72,26 26,0 50,-9 69,-26 22,-20 33,-46 33,-79l0 -1012c0,-42 -12,-76 -37,-105 -26,-31 -62,-46 -108,-46l-784 0c-61,0 -91,31 -91,92 0,61 30,92 91,92l725 0c0,330 -85,576 -254,737 -143,135 -331,202 -566,202 -275,0 -490,-88 -644,-264 -163,-185 -244,-455 -244,-809 0,-346 81,-613 245,-802 157,-180 372,-271 646,-271 211,0 383,42 516,127 135,89 220,218 255,387 4,33 21,57 48,72 24,15 50,21 78,16 30,-4 54,-18 71,-40 17,-23 23,-53 16,-87 -43,-187 -136,-337 -277,-450 -176,-139 -412,-208 -708,-208zm2885 2382l0 -1633c0,-37 -11,-65 -33,-85 -20,-19 -44,-30 -72,-30 -28,0 -52,10 -72,30 -20,20 -30,48 -30,85l0 1238c-80,109 -168,191 -263,248 -100,63 -205,95 -315,95 -108,0 -194,-35 -257,-105 -58,-63 -87,-139 -87,-228l0 -1247c0,-37 -11,-65 -33,-85 -20,-19 -43,-30 -69,-30 -28,0 -52,10 -72,30 -19,20 -30,48 -30,85l0 1248c0,138 46,255 136,353 103,109 239,163 411,163 124,0 237,-28 341,-86 89,-46 168,-109 238,-189l0 143c0,31 10,56 30,75 20,17 44,26 72,26 28,0 53,-9 72,-26 22,-19 33,-45 33,-75zm573 -1612l0 1633c0,33 10,60 30,80 20,18 44,27 72,27 26,0 50,-9 69,-27 22,-20 33,-47 33,-80l0 -1271c39,-85 96,-151 170,-199 82,-54 177,-81 284,-81 55,0 81,-34 79,-102 -2,-66 -27,-99 -75,-99 -104,0 -198,26 -281,79 -63,39 -121,97 -176,173l0 -134c0,-31 -11,-55 -33,-72 -20,-13 -43,-20 -69,-20 -28,0 -52,8 -72,23 -20,17 -30,40 -30,69zm2447 1612l0 -1633c0,-37 -11,-65 -33,-85 -19,-19 -44,-30 -72,-30 -28,0 -52,10 -72,30 -20,20 -30,48 -30,85l0 1238c-80,109 -168,191 -263,248 -100,63 -205,95 -315,95 -108,0 -194,-35 -257,-105 -58,-63 -87,-139 -87,-228l0 -1247c0,-37 -11,-65 -33,-85 -19,-19 -43,-30 -69,-30 -28,0 -52,10 -72,30 -20,20 -30,48 -30,85l0 1248c0,138 46,255 136,353 102,109 239,163 411,163 124,0 237,-28 341,-86 89,-46 168,-109 238,-189l0 143c0,31 10,56 30,75 20,17 44,26 72,26 28,0 53,-9 72,-26 22,-19 33,-45 33,-75z"/>
  <path class="fil3" d="M662 3083c-10,-5 -23,-7 -38,-7l-83 0c-39,0 -70,-14 -92,-42 -19,-23 -28,-53 -28,-90 0,-86 41,-129 121,-129l83 0c16,0 29,-2 39,-7 9,-4 17,-11 24,-21l0 0c9,-12 15,-28 20,-47 6,-23 8,-50 8,-82l0 -428c0,-42 6,-82 19,-119 13,-37 32,-71 57,-102 25,-30 53,-54 84,-69 33,-17 68,-25 105,-25l153 0c38,0 68,15 90,44l0 0c16,22 25,50 26,85l0 3c0,35 -8,63 -24,86 -22,30 -52,46 -91,46l-106 0c-12,0 -21,1 -27,4 -1,1 -3,1 -3,2l0 0c-2,3 -4,9 -6,17 -3,13 -4,30 -4,51l0 441c0,44 -7,84 -20,122 -13,38 -34,73 -61,102l-1 1c-11,12 -22,22 -35,32 13,10 25,21 35,32l0 0c27,28 48,62 61,100 13,37 20,78 20,123l0 445c0,22 1,39 4,52 2,8 3,14 5,17l0 1c0,1 0,-1 1,0 6,2 16,4 29,4l100 0c79,0 119,44 119,131 0,35 -8,63 -24,86 -22,30 -52,46 -91,46l-153 0c-37,0 -72,-7 -103,-20 -32,-14 -60,-34 -84,-61l0 0c-27,-29 -46,-64 -60,-104 -12,-38 -19,-81 -19,-128l0 -433c0,-33 -3,-60 -8,-83 -5,-19 -11,-35 -20,-47l-1 -1c-7,-10 -15,-17 -24,-21z"/>
  <path class="fil3" d="M2066 3312l0 -1079c0,-19 3,-37 9,-54 7,-19 17,-35 31,-49l4 -3c13,-11 28,-20 44,-26 16,-6 32,-9 50,-9 17,0 34,3 50,9 16,6 31,15 44,26l0 0c15,14 27,30 35,49 7,17 11,36 11,56l0 1094c0,64 -10,123 -30,178 -20,55 -50,105 -90,149l0 0c-44,51 -97,89 -158,114 -60,25 -127,37 -201,37 -74,0 -141,-12 -201,-37 -61,-25 -114,-62 -159,-112 -39,-43 -68,-91 -88,-144 -19,-52 -29,-109 -29,-170 0,-19 3,-37 9,-54 7,-19 17,-36 31,-49l4 -3c13,-11 28,-20 44,-26 15,-6 31,-8 47,-9 15,-1 31,1 45,5 16,4 31,12 44,22 16,12 29,27 38,45 8,18 13,36 13,57 0,34 4,64 13,89 8,24 20,45 36,63 17,20 38,35 62,44 25,10 56,16 91,16 35,0 65,-5 91,-16 23,-10 43,-24 60,-44l1 -1c16,-18 28,-41 37,-68 9,-29 14,-64 14,-103z"/>
  <path class="fil3" d="M2721 2331c140,-159 324,-239 554,-239 99,0 189,12 269,36 83,24 155,61 217,110l0 1c51,41 93,88 126,142 33,54 57,114 73,180l1 3c4,20 4,39 1,57 -4,20 -12,39 -24,55l-1 2c-11,14 -25,26 -41,35 -15,9 -32,14 -50,17l0 0c-17,3 -34,2 -51,-1 -16,-3 -30,-9 -44,-17 -19,-11 -35,-24 -46,-42 -11,-16 -18,-35 -21,-56 -9,-42 -24,-79 -45,-111 -21,-31 -48,-58 -81,-80l0 0c-34,-22 -74,-38 -120,-50 -47,-12 -101,-17 -161,-17 -76,0 -142,12 -200,36 -56,24 -105,59 -146,107l0 0c-44,51 -77,113 -99,186 -23,76 -35,164 -35,265 0,103 12,193 35,270 22,73 55,135 99,185l0 0c40,46 88,81 145,104 57,24 124,35 201,35 65,0 122,-9 173,-27 49,-18 92,-44 129,-79l0 0c77,-74 121,-184 132,-331l-375 0c-39,0 -71,-12 -95,-37 -24,-24 -36,-56 -36,-95 0,-39 12,-71 36,-95 24,-24 56,-36 95,-36l488 0c24,0 46,4 67,13 22,9 41,23 56,41l0 0c14,16 24,34 31,53 7,19 10,39 10,60l0 630c0,20 -4,39 -11,56 -8,18 -19,34 -34,48l0 0c-13,11 -27,20 -43,26 -16,6 -32,9 -49,9 -17,0 -34,-3 -50,-9 -16,-6 -31,-14 -44,-26l-4 -3c-13,-13 -24,-29 -31,-48 -4,-11 -7,-22 -8,-34 -26,22 -55,42 -86,59l0 0c-100,57 -217,86 -352,86 -114,0 -218,-19 -310,-58 -94,-39 -175,-98 -243,-177l0 0c-68,-77 -119,-169 -153,-274 -33,-103 -50,-219 -50,-348 0,-126 17,-240 50,-343 34,-104 85,-196 153,-275l0 0z"/>
  <path class="fil3" d="M4946 3075l-83 0c-16,0 -30,3 -40,8 -10,5 -18,12 -24,21 -8,12 -14,28 -19,48 -5,23 -8,51 -8,84l0 433c0,47 -6,90 -19,128 -13,41 -33,76 -60,105l0 0c-25,27 -53,47 -84,60 -31,14 -66,20 -102,20l-153 0c-39,0 -69,-15 -91,-44 -17,-23 -25,-52 -25,-87 0,-37 10,-67 29,-90 23,-28 53,-42 92,-42l100 0c12,0 21,-1 27,-4 1,0 1,1 1,0l2 -3c2,-3 4,-8 6,-15l0 0c3,-13 4,-30 4,-50l0 -445c0,-44 6,-85 19,-122 13,-39 33,-73 60,-101 11,-11 22,-22 35,-32 -13,-10 -24,-21 -35,-32l-1 -1c-26,-30 -46,-64 -59,-102 -13,-37 -19,-77 -19,-121l0 -441c0,-21 -1,-38 -4,-50 -2,-8 -4,-13 -6,-15l-1 -2c-3,-4 -12,-6 -29,-6l-106 0c-39,0 -69,-15 -91,-44 -17,-23 -25,-52 -25,-87l0 -3c1,-35 11,-64 28,-86 22,-29 53,-43 91,-43l153 0c37,0 71,8 104,25 31,16 59,38 85,68l1 1c25,31 45,65 57,102 13,37 19,77 19,119l0 428c0,32 3,60 8,83 5,19 11,35 18,46l0 0c7,9 15,16 24,20 11,5 24,8 41,8l83 0c38,0 69,14 91,42 18,23 28,52 28,88 0,36 -9,65 -27,88 -22,29 -53,43 -92,43z"/>
 </g>
</svg>
